<svg width="95" height="18" viewBox="0 0 95 18" fill="none" xmlns="http://www.w3.org/2000/svg">
<path fill-rule="evenodd" clip-rule="evenodd" d="M6.43452 0.51123C9.29555 0.51123 10.8558 1.81205 12.183 2.91866L12.243 2.96868L10.2324 5.20273C10.0998 5.13646 9.94272 5.05543 9.7683 4.9655C8.76687 4.44912 7.19558 3.6389 6.43452 3.6389C5.31749 3.6389 4.20047 4.53252 4.20047 5.20273C4.20047 6.09635 4.64728 6.54316 7.55154 7.43678C10.4558 8.3304 12.9133 9.67083 12.9133 12.5751C12.9133 15.4794 10.2324 17.2666 6.43452 17.2666C3.39621 17.2666 1.14727 15.4794 0.402588 14.5857L2.41323 12.3517C2.78557 12.9474 4.11111 14.1389 6.43452 14.1389C8.75793 14.1389 9.33878 13.0219 9.33878 12.5751C9.33878 12.1283 9.11537 11.4581 6.43452 10.5644C3.75366 9.67083 1.0728 8.3304 1.0728 5.64954C1.0728 2.96868 3.53025 0.51123 6.43452 0.51123ZM16.7111 1.18144L22.2963 17.0432H25.2005L28.775 6.31976L32.5729 17.0432H35.4771L41.0623 1.18144H37.041L33.6899 11.6815L30.1154 1.18144H27.658L24.0835 11.6815L20.7324 1.18144H16.7111ZM43.9665 1.18144L49.9984 10.341V16.8198H53.3495V10.341L48.2112 1.18144H43.9665ZM55.5836 1.18144L53.1261 4.97933L54.9133 8.10699L59.3814 1.18144H55.5836ZM66.307 1.18144H62.5091L68.7644 16.8198H72.1155L78.3708 1.18144H74.573L70.5517 12.1283L66.307 1.18144ZM83.0623 1.18144V16.8198H94.456V13.6921H86.6368V1.18144H83.0623Z" fill="white"/>
</svg>
