<svg width="23" height="42" viewBox="0 0 23 42" fill="none" xmlns="http://www.w3.org/2000/svg">
<path d="M15.6361 4.24469C15.6361 6.58897 13.7357 8.48938 11.3914 8.48938C9.04714 8.48938 7.14673 6.58897 7.14673 4.24469C7.14673 1.90041 9.04714 0 11.3914 0C13.7357 0 15.6361 1.90041 15.6361 4.24469Z" fill="#33CC99"/>
<path d="M15.6361 37.7554C15.6361 40.0997 13.7357 42.0001 11.3914 42.0001C9.04714 42.0001 7.14673 40.0997 7.14673 37.7554C7.14673 35.4112 9.04714 33.5107 11.3914 33.5107C13.7357 33.5107 15.6361 35.4112 15.6361 37.7554Z" fill="#FF389B"/>
<path fill-rule="evenodd" clip-rule="evenodd" d="M17.0915 6.81734C17.3703 6.30363 18.0296 6.06713 18.4868 6.43129C21.1075 8.51878 22.7873 11.7375 22.7873 15.3485C22.7873 15.7911 22.762 16.2279 22.7129 16.6573C22.6285 17.3956 21.6999 17.5883 21.1829 17.0546C18.9481 14.7475 15.9051 13.2281 12.5104 12.9527C11.8955 12.9029 11.3936 13.4077 11.3936 14.0247C11.3936 14.6416 11.8952 15.1359 12.5093 15.1956C16.2081 15.5551 19.3891 17.6832 21.1956 20.7236C21.2756 20.8582 21.2756 21.0257 21.1956 21.1603C19.2098 24.5023 15.5633 26.7421 11.3936 26.7421C5.101 26.7421 0 21.6409 0 15.3485C0 11.7375 1.67974 8.51878 4.3005 6.43129C4.75769 6.06713 5.41694 6.30363 5.69578 6.81733C6.79259 8.83795 8.9329 10.2102 11.3936 10.2102C13.8544 10.2102 15.9947 8.83795 17.0915 6.81734Z" fill="#33CC99"/>
<path fill-rule="evenodd" clip-rule="evenodd" d="M11.3944 31.7741C8.9337 31.7741 6.7934 33.1463 5.69658 35.1669C5.41774 35.6806 4.7585 35.9171 4.3013 35.553C1.68054 33.4655 0.000801566 30.2467 0.000801881 26.6357C0.00080192 26.1931 0.0260419 25.7564 0.0751619 25.3269C0.159602 24.5886 1.08817 24.3959 1.6052 24.9297C3.83997 27.2367 6.88298 28.7562 10.2777 29.0315C10.8926 29.0814 11.3944 28.5765 11.3944 27.9596C11.3944 27.3427 10.8928 26.8483 10.2788 26.7886C6.57995 26.4292 3.39902 24.3011 1.59245 21.2607C1.51247 21.1261 1.51248 20.9586 1.59246 20.824C3.57829 17.4819 7.22476 15.2421 11.3944 15.2421C17.6871 15.2421 22.7881 20.3433 22.7881 26.6358C22.7881 30.2467 21.1084 33.4655 18.4876 35.553C18.0304 35.9171 17.3711 35.6806 17.0923 35.1669C15.9955 33.1463 13.8552 31.7741 11.3944 31.7741Z" fill="#FF389B"/>
<path fill-rule="evenodd" clip-rule="evenodd" d="M1.46118 20.9991C3.41481 17.532 7.13113 15.1906 11.3943 15.1906C15.6575 15.1906 19.3739 17.532 21.3275 20.9991C19.3739 24.4661 15.6575 26.8076 11.3943 26.8076C7.13113 26.8076 3.41481 24.4661 1.46118 20.9991Z" fill="#505AE0"/>
</svg>
